<svg version="1.1" xmlns="http://www.w3.org/2000/svg" viewBox="0 0 913.0531750638038 552.2198284604897" width="1826.1063501276076" height="1104.4396569209794">
  <!-- svg-source:excalidraw -->
  
  <defs>
    <style class="style-fonts">
      
    </style>
    
  </defs>
  <rect x="0" y="0" width="913.0531750638038" height="552.2198284604897" fill="#ffffff"></rect><g stroke-linecap="round" transform="translate(10 49.386495127156365) rotate(0 78.5 246.41666666666663)"><path d="M32 0 C54.84 -1.12, 79.29 -0.32, 125 0 M32 0 C61.07 0.58, 90.97 -0.37, 125 0 M125 0 C145.15 0.89, 157.12 11.14, 157 32 M125 0 C144.27 1.19, 156 10.25, 157 32 M157 32 C158.41 146.87, 158.6 260.83, 157 460.83 M157 32 C158.92 194.59, 158.9 356.89, 157 460.83 M157 460.83 C155.71 480.31, 148.33 494.65, 125 492.83 M157 460.83 C156.16 484.08, 148.59 490.8, 125 492.83 M125 492.83 C98.38 494.05, 72.91 494.26, 32 492.83 M125 492.83 C98.26 491.54, 73.72 491.93, 32 492.83 M32 492.83 C11.2 492.88, 0.04 483.65, 0 460.83 M32 492.83 C12.54 492.51, -2.28 484.25, 0 460.83 M0 460.83 C0.71 288.85, 1.2 119.26, 0 32 M0 460.83 C-1.9 317.74, -2.07 174.27, 0 32 M0 32 C0.88 10.34, 11.73 -1.54, 32 0 M0 32 C-0.48 10.37, 11.18 -2.1, 32 0" stroke="#1e1e1e" stroke-width="2" fill="none"></path></g><g stroke-linecap="round" transform="translate(227.5 150.38649512715637) rotate(0 78.5 157.25)"><path d="M32 0 C51.01 2.09, 74.8 1.6, 125 0 M32 0 C58.26 0.58, 84.75 -0.4, 125 0 M125 0 C147.09 -1.99, 155.67 10.72, 157 32 M125 0 C148.63 0.68, 157.3 9.01, 157 32 M157 32 C155.47 116.24, 155.35 198.79, 157 282.5 M157 32 C156.28 86.17, 156.75 141.82, 157 282.5 M157 282.5 C158.7 302.25, 145.45 316.06, 125 314.5 M157 282.5 C154.76 304.44, 144.82 313.67, 125 314.5 M125 314.5 C104.92 316.42, 87.86 316.74, 32 314.5 M125 314.5 C91.63 315.62, 58.46 315.54, 32 314.5 M32 314.5 C10.96 315.14, -1.89 303.83, 0 282.5 M32 314.5 C10.7 313.67, 2.21 303.11, 0 282.5 M0 282.5 C-0.48 186.1, -0.43 87.08, 0 32 M0 282.5 C0.49 191.03, -0.42 98.77, 0 32 M0 32 C1.45 10.73, 10.82 -0.41, 32 0 M0 32 C1.92 9.74, 11.44 -1.55, 32 0" stroke="#1e1e1e" stroke-width="2" fill="none"></path></g><g stroke-linecap="round" transform="translate(441 242.88649512715637) rotate(0 78.5 66)"><path d="M32 0 C68.03 0.33, 102.34 1.48, 125 0 M32 0 C62.91 -1.01, 95.85 0.65, 125 0 M125 0 C146.92 0.26, 155.56 11.34, 157 32 M125 0 C144.25 1.99, 157.45 11.52, 157 32 M157 32 C156.17 51.67, 156.61 73.02, 157 100 M157 32 C156.48 55.21, 158.05 78.34, 157 100 M157 100 C157.53 120.01, 145.61 130.06, 125 132 M157 100 C155.68 123.29, 144.95 133.3, 125 132 M125 132 C93.12 132.9, 63.86 134.51, 32 132 M125 132 C91.85 131.19, 58.06 132.15, 32 132 M32 132 C9.94 133.92, -0.63 123.08, 0 100 M32 132 C10.76 133.29, -0.56 122.29, 0 100 M0 100 C0.38 79.61, 1.37 63.16, 0 32 M0 100 C0 84.36, -0.24 69.4, 0 32 M0 32 C-0.81 11.34, 9.32 1.09, 32 0 M0 32 C0.52 10.27, 9.77 -0.55, 32 0" stroke="#1e1e1e" stroke-width="2" fill="none"></path></g><g stroke-linecap="round"><g transform="translate(166.33333333333348 110.05344718195096) rotate(0 70.33333333333326 -0.3334760273972961)"><path d="M-0.83 -1.12 C22.88 -1.34, 118.05 -1.67, 141.45 -1.4 M0.93 0.9 C24.63 0.83, 117.43 0.12, 140.91 -0.25" stroke="#1e1e1e" stroke-width="2" fill="none"></path></g><g transform="translate(166.33333333333348 110.05344718195096) rotate(0 70.33333333333326 -0.3334760273972961)"><path d="M117.52 8.56 C121.06 7.99, 127.12 2.78, 140.91 -0.25 M117.52 8.56 C126.85 5.72, 135.76 1.34, 140.91 -0.25" stroke="#1e1e1e" stroke-width="2" fill="none"></path></g><g transform="translate(166.33333333333348 110.05344718195096) rotate(0 70.33333333333326 -0.3334760273972961)"><path d="M117.33 -8.54 C120.9 -5.16, 127 -6.41, 140.91 -0.25 M117.33 -8.54 C126.83 -4.65, 135.82 -2.29, 140.91 -0.25" stroke="#1e1e1e" stroke-width="2" fill="none"></path></g></g><mask></mask><g stroke-linecap="round"><g transform="translate(306.5 111.38649512715637) rotate(0 -0.48889728413718103 19)"><path d="M-0.33 0.4 C-0.56 6.69, -1.45 31.27, -1.5 37.61 M0.5 0.12 C0.45 6.48, -0.32 31.87, -0.53 38.11" stroke="#1e1e1e" stroke-width="2" fill="none"></path></g><g transform="translate(306.5 111.38649512715637) rotate(0 -0.48889728413718103 19)"><path d="M-6.47 20.05 C-4.19 24.08, -3.93 30.5, -0.53 38.11 M-6.47 20.05 C-3.95 27.13, -1.49 33.89, -0.53 38.11" stroke="#1e1e1e" stroke-width="2" fill="none"></path></g><g transform="translate(306.5 111.38649512715637) rotate(0 -0.48889728413718103 19)"><path d="M6.53 20.46 C5.27 24.34, 1.99 30.65, -0.53 38.11 M6.53 20.46 C4.14 27.33, 1.7 33.93, -0.53 38.11" stroke="#1e1e1e" stroke-width="2" fill="none"></path></g></g><mask></mask><g stroke-linecap="round"><g transform="translate(383.83333333333326 209.8907073696966) rotate(0 68.83333333333337 -1.002106121270117)"><path d="M0.81 0.77 C23.79 0.71, 114.98 -0.31, 137.76 -0.88 M-0.22 0.13 C22.62 -0.2, 114.05 -2.11, 136.86 -2.41" stroke="#1e1e1e" stroke-width="2" fill="none"></path></g><g transform="translate(383.83333333333326 209.8907073696966) rotate(0 68.83333333333337 -1.002106121270117)"><path d="M113.52 6.55 C121.58 3.96, 128.92 0.9, 136.86 -2.41 M113.52 6.55 C119.6 4.34, 124.51 1.63, 136.86 -2.41" stroke="#1e1e1e" stroke-width="2" fill="none"></path></g><g transform="translate(383.83333333333326 209.8907073696966) rotate(0 68.83333333333337 -1.002106121270117)"><path d="M113.22 -10.55 C121.3 -8.2, 128.72 -6.32, 136.86 -2.41 M113.22 -10.55 C119.29 -8.55, 124.28 -7.06, 136.86 -2.41" stroke="#1e1e1e" stroke-width="2" fill="none"></path></g></g><mask></mask><g stroke-linecap="round"><g transform="translate(518.5 209.38649512715637) rotate(0 0.25 14.75)"><path d="M0.33 -0.4 C0.52 4.59, 0.99 24.77, 0.94 29.81 M-0.16 0.59 C0 5.42, 0.53 24.28, 0.74 29" stroke="#1e1e1e" stroke-width="2" fill="none"></path></g><g transform="translate(518.5 209.38649512715637) rotate(0 0.25 14.75)"><path d="M-4.79 15.32 C-3.85 19.57, -1.42 21.99, 0.74 29 M-4.79 15.32 C-2.84 20.44, -0.48 25.43, 0.74 29" stroke="#1e1e1e" stroke-width="2" fill="none"></path></g><g transform="translate(518.5 209.38649512715637) rotate(0 0.25 14.75)"><path d="M5.3 14.97 C3.53 19.34, 3.26 21.85, 0.74 29 M5.3 14.97 C3.64 20.17, 2.38 25.28, 0.74 29" stroke="#1e1e1e" stroke-width="2" fill="none"></path></g></g><mask></mask><g stroke-linecap="round"><g transform="translate(596 311.88649512715637) rotate(0 153.75 -151)"><path d="M0.17 -0.6 C51.39 -50.82, 255.87 -251.67, 307.05 -301.89 M-1.2 1.7 C49.84 -48.26, 254.6 -249.92, 305.87 -300.29" stroke="#1e1e1e" stroke-width="2" fill="none"></path></g><g transform="translate(596 311.88649512715637) rotate(0 153.75 -151)"><path d="M295.12 -277.72 C297.22 -284.77, 301.41 -290.66, 305.87 -300.29 M295.12 -277.72 C298.72 -285.05, 300.79 -290.71, 305.87 -300.29" stroke="#1e1e1e" stroke-width="2" fill="none"></path></g><g transform="translate(596 311.88649512715637) rotate(0 153.75 -151)"><path d="M283.13 -289.91 C288.51 -293.58, 296.04 -296.07, 305.87 -300.29 M283.13 -289.91 C290.55 -293.37, 296.33 -295.26, 305.87 -300.29" stroke="#1e1e1e" stroke-width="2" fill="none"></path></g></g><mask></mask><g stroke-linecap="round"><g transform="translate(314.8342365963654 472.43681127386316) rotate(0 -0.48889728413718103 19)"><path d="M-0.27 0.06 C-0.48 6.48, -0.98 31.67, -1.08 37.92" stroke="#e03131" stroke-width="2.5" fill="none" stroke-dasharray="8 10"></path></g><g transform="translate(314.8342365963654 472.43681127386316) rotate(0 -0.48889728413718103 19)"><path d="M-7.25 19.95 C-5.15 25.85, -3.31 32.3, -1.08 37.92" stroke="#e03131" stroke-width="2.5" fill="none"></path></g><g transform="translate(314.8342365963654 472.43681127386316) rotate(0 -0.48889728413718103 19)"><path d="M5.75 20.19 C3.47 25.98, 0.93 32.35, -1.08 37.92" stroke="#e03131" stroke-width="2.5" fill="none"></path></g></g><mask></mask><g stroke-linecap="round"><g transform="translate(311.5248540382835 517.6861302665552) rotate(0 -67.58333333333337 -1.583476027397296)"><path d="M-0.98 0.43 C-23.53 0.13, -112.38 -1.24, -134.69 -2.03" stroke="#e03131" stroke-width="2.5" fill="none" stroke-dasharray="8 10"></path></g><g transform="translate(311.5248540382835 517.6861302665552) rotate(0 -67.58333333333337 -1.583476027397296)"><path d="M-111 -10.02 C-118.57 -6.63, -125.68 -4.11, -134.69 -2.03" stroke="#e03131" stroke-width="2.5" fill="none"></path></g><g transform="translate(311.5248540382835 517.6861302665552) rotate(0 -67.58333333333337 -1.583476027397296)"><path d="M-111.41 7.08 C-118.8 4.5, -125.77 1.04, -134.69 -2.03" stroke="#e03131" stroke-width="2.5" fill="none"></path></g></g><mask></mask><g stroke-linecap="round"><g transform="translate(515.249309650517 413.52331024796445) rotate(0 -62.41666666666674 0.24789387872982616)"><path d="M0.39 0.6 C-20.31 0.74, -104.03 0.03, -124.85 0" stroke="#e03131" stroke-width="2.5" fill="none" stroke-dasharray="8 10"></path></g><g transform="translate(515.249309650517 413.52331024796445) rotate(0 -62.41666666666674 0.24789387872982616)"><path d="M-101.32 -8.43 C-106.16 -6.31, -113.8 -3.74, -124.85 0" stroke="#e03131" stroke-width="2.5" fill="none"></path></g><g transform="translate(515.249309650517 413.52331024796445) rotate(0 -62.41666666666674 0.24789387872982616)"><path d="M-101.41 8.67 C-106.11 6.58, -113.72 4.94, -124.85 0" stroke="#e03131" stroke-width="2.5" fill="none"></path></g></g><mask></mask><g stroke-linecap="round"><g transform="translate(517.0569432220832 379.4095393332574) rotate(0 0.25 14.75)"><path d="M0.51 -0.51 C0.57 4.37, 0.88 24.12, 0.89 29.12" stroke="#e03131" stroke-width="2.5" fill="none" stroke-dasharray="8 10"></path></g><g transform="translate(517.0569432220832 379.4095393332574) rotate(0 0.25 14.75)"><path d="M-4.29 15.31 C-2.95 21.26, -0.73 26.29, 0.89 29.12" stroke="#e03131" stroke-width="2.5" fill="none"></path></g><g transform="translate(517.0569432220832 379.4095393332574) rotate(0 0.25 14.75)"><path d="M5.8 15.21 C3.16 21.24, 1.4 26.31, 0.89 29.12" stroke="#e03131" stroke-width="2.5" fill="none"></path></g></g><mask></mask></svg>