<svg version="1.1" xmlns="http://www.w3.org/2000/svg" viewBox="0 0 457 589.9957083545626" width="914" height="1179.9914167091251">
  <!-- svg-source:excalidraw -->
  
  <defs>
    <style class="style-fonts">
      @font-face {
        font-family: "Virgil";
        src: url("https://excalidraw.com/Virgil.woff2");
      }
      @font-face {
        font-family: "Cascadia";
        src: url("https://excalidraw.com/Cascadia.woff2");
      }
      @font-face {
        font-family: "Assistant";
        src: url("https://excalidraw.com/Assistant-Regular.woff2");
      }
    </style>
    
  </defs>
  <rect x="0" y="0" width="457" height="589.9957083545626" fill="#ffffff"></rect><g stroke-linecap="round"><g transform="translate(86 10.754686070606112) rotate(0 2.75 74.75)"><path d="M-0.72 -0.75 C0.4 24.06, 4.58 123.1, 5.65 148.31 M1.1 1.46 C2.17 26.44, 4.13 124.69, 4.78 149.22" stroke="#1e1e1e" stroke-width="2" fill="none"></path></g><g transform="translate(86 10.754686070606112) rotate(0 2.75 74.75)"><path d="M-4.31 125.94 C-3.78 131.13, -2.59 136.06, 4.78 149.22 M-4.31 125.94 C-0.46 135.53, 2.62 143.29, 4.78 149.22" stroke="#1e1e1e" stroke-width="2" fill="none"></path></g><g transform="translate(86 10.754686070606112) rotate(0 2.75 74.75)"><path d="M12.78 125.54 C9.73 130.72, 7.32 135.72, 4.78 149.22 M12.78 125.54 C10.06 135.33, 6.58 143.25, 4.78 149.22" stroke="#1e1e1e" stroke-width="2" fill="none"></path></g></g><mask></mask><g stroke-linecap="round" transform="translate(10 169.7546860706061) rotate(0 83 29.75)"><path d="M14.88 0 C62.71 -0.14, 108.48 -0.85, 151.13 0 M14.88 0 C54.45 0.5, 94.86 0.24, 151.13 0 M151.13 0 C160.88 1.92, 166.5 5.84, 166 14.88 M151.13 0 C160.12 -1.84, 164.44 5, 166 14.88 M166 14.88 C167.56 25.28, 165.51 33.83, 166 44.63 M166 14.88 C165.17 26.7, 166.08 36.58, 166 44.63 M166 44.63 C166.63 53.86, 159.6 58.35, 151.13 59.5 M166 44.63 C164.28 52.25, 159.91 58.79, 151.13 59.5 M151.13 59.5 C120.24 59.18, 88.14 60.28, 14.88 59.5 M151.13 59.5 C105.08 57.98, 58.74 58.02, 14.88 59.5 M14.88 59.5 C5.76 61.49, 1.13 55.72, 0 44.63 M14.88 59.5 C6.86 61.6, -1.91 53.39, 0 44.63 M0 44.63 C0.1 32.57, -1.63 22.48, 0 14.88 M0 44.63 C1.13 33.53, 0.18 22.44, 0 14.88 M0 14.88 C-0.31 6.27, 4.65 -1.24, 14.88 0 M0 14.88 C-0.61 5.03, 4.89 -2.03, 14.88 0" stroke="#1e1e1e" stroke-width="2" fill="none"></path></g><g transform="translate(69.530029296875 187.0046860706061) rotate(0 23.469970703125 12.5)"><text x="23.469970703125" y="17.52" font-family="Virgil, Segoe UI Emoji" font-size="20px" fill="#1e1e1e" text-anchor="middle" style="white-space: pre;" direction="ltr" dominant-baseline="alphabetic">foo()</text></g><g stroke-linecap="round" transform="translate(261 265.2546860706061) rotate(0 93 33.25)"><path d="M16.63 0 C65.16 -0.13, 112 0.7, 169.38 0 M16.63 0 C61.47 -1, 105.36 -0.07, 169.38 0 M169.38 0 C179.01 1.91, 187.4 4.6, 186 16.63 M169.38 0 C179.72 -1.36, 187.84 5.9, 186 16.63 M186 16.63 C184.28 26.97, 184.41 36.79, 186 49.88 M186 16.63 C186.95 30.2, 185.43 41.83, 186 49.88 M186 49.88 C186.96 61.25, 180.56 65.97, 169.38 66.5 M186 49.88 C185.09 59.68, 179.12 67.53, 169.38 66.5 M169.38 66.5 C138.04 67.02, 105.37 63.56, 16.63 66.5 M169.38 66.5 C127.59 65.84, 86.01 65.94, 16.63 66.5 M16.63 66.5 C5.81 68.35, 1.82 60.87, 0 49.88 M16.63 66.5 C6 65.53, 1.56 59.5, 0 49.88 M0 49.88 C1.79 39.89, 1.62 33.14, 0 16.63 M0 49.88 C-0.65 39.02, 1.11 26.55, 0 16.63 M0 16.63 C0.14 6.17, 7.06 -1.06, 16.63 0 M0 16.63 C-1.15 7.73, 3.46 1.15, 16.63 0" stroke="#1e1e1e" stroke-width="2" fill="none"></path></g><g transform="translate(330.42002868652344 286.0046860706061) rotate(0 23.579971313476562 12.5)"><text x="23.579971313476562" y="17.52" font-family="Virgil, Segoe UI Emoji" font-size="20px" fill="#1e1e1e" text-anchor="middle" style="white-space: pre;" direction="ltr" dominant-baseline="alphabetic">bar()</text></g><g stroke-linecap="round"><g transform="translate(178 197.7546860706061) rotate(0 93.25 -1)"><path d="M0.38 -0.98 C31.53 -1.27, 155.05 -1.49, 186.02 -1.62 M-0.88 1.13 C30.15 0.45, 153.79 -3.31, 184.82 -3.54" stroke="#1e1e1e" stroke-width="2" fill="none"></path></g><g transform="translate(178 197.7546860706061) rotate(0 93.25 -1)"><path d="M161.51 5.49 C165.14 2.57, 172.68 0.88, 184.82 -3.54 M161.51 5.49 C169.33 1.95, 176.62 -0.22, 184.82 -3.54" stroke="#1e1e1e" stroke-width="2" fill="none"></path></g><g transform="translate(178 197.7546860706061) rotate(0 93.25 -1)"><path d="M161.16 -11.61 C164.9 -10.66, 172.51 -8.49, 184.82 -3.54 M161.16 -11.61 C169.25 -9.6, 176.65 -6.23, 184.82 -3.54" stroke="#1e1e1e" stroke-width="2" fill="none"></path></g></g><mask></mask><g stroke-linecap="round"><g transform="translate(363 196.2546860706061) rotate(0 0.151410884366328 32.5)"><path d="M-0.71 0.47 C-0.72 11.29, 0.52 54.99, 0.53 65.87 M1.11 -0.33 C0.92 10.08, -0.4 53.52, -0.29 64.21" stroke="#1e1e1e" stroke-width="2" fill="none"></path></g><g transform="translate(363 196.2546860706061) rotate(0 0.151410884366328 32.5)"><path d="M-8.53 40.61 C-4.71 49.22, -1.18 55.43, -0.29 64.21 M-8.53 40.61 C-5.16 49.87, -2.35 58.67, -0.29 64.21" stroke="#1e1e1e" stroke-width="2" fill="none"></path></g><g transform="translate(363 196.2546860706061) rotate(0 0.151410884366328 32.5)"><path d="M8.57 40.83 C6.46 49.26, 4.07 55.39, -0.29 64.21 M8.57 40.83 C5.72 50.15, 2.32 58.87, -0.29 64.21" stroke="#1e1e1e" stroke-width="2" fill="none"></path></g></g><mask></mask><g stroke-linecap="round"><g transform="translate(357.5 331.7546860706061) rotate(0 0 26)"><path d="M-0.28 -0.65 C-0.08 8.15, 1.02 44.41, 1.13 53.19 M1.78 1.62 C1.92 10.08, 1.11 43.06, 0.77 51.7" stroke="#1e1e1e" stroke-width="2" fill="none"></path></g><g transform="translate(357.5 331.7546860706061) rotate(0 0 26)"><path d="M-7.07 27.96 C-5.76 36.85, -0.38 42.54, 0.77 51.7 M-7.07 27.96 C-4.83 35.92, -2.36 41.53, 0.77 51.7" stroke="#1e1e1e" stroke-width="2" fill="none"></path></g><g transform="translate(357.5 331.7546860706061) rotate(0 0 26)"><path d="M10.03 28.47 C6.29 37.18, 6.63 42.71, 0.77 51.7 M10.03 28.47 C7.04 36.15, 4.3 41.6, 0.77 51.7" stroke="#1e1e1e" stroke-width="2" fill="none"></path></g></g><mask></mask><g stroke-linecap="round" transform="translate(13 420.5046860706061) rotate(0 83 29.75)"><path d="M14.88 0 C62.44 -1.63, 110.69 -0.48, 151.13 0 M14.88 0 C65.02 -0.45, 116.53 0.23, 151.13 0 M151.13 0 C159.16 -1.97, 167.86 2.99, 166 14.88 M151.13 0 C160.75 -1.34, 166.02 4.14, 166 14.88 M166 14.88 C164.2 24.31, 166.17 31.3, 166 44.63 M166 14.88 C166.02 22.39, 166.64 29.81, 166 44.63 M166 44.63 C165.88 53.14, 162.02 60.53, 151.13 59.5 M166 44.63 C163.72 55.16, 162.06 61.7, 151.13 59.5 M151.13 59.5 C116.7 59.84, 79.75 59.13, 14.88 59.5 M151.13 59.5 C98.52 60.42, 47.18 60.39, 14.88 59.5 M14.88 59.5 C3.78 60.19, -1.23 56.07, 0 44.63 M14.88 59.5 C5.06 57.92, 2.07 52.52, 0 44.63 M0 44.63 C-1.4 39.17, -1.58 31.71, 0 14.88 M0 44.63 C0 34.88, -0.27 23.26, 0 14.88 M0 14.88 C-1.05 3.78, 3.34 -0.23, 14.88 0 M0 14.88 C0.08 5.21, 6.78 1.72, 14.88 0" stroke="#1e1e1e" stroke-width="2" fill="none"></path></g><g transform="translate(72.530029296875 437.7546860706061) rotate(0 23.469970703125 12.5)"><text x="23.469970703125" y="17.52" font-family="Virgil, Segoe UI Emoji" font-size="20px" fill="#1e1e1e" text-anchor="middle" style="white-space: pre;" direction="ltr" dominant-baseline="alphabetic">foo()</text></g><g stroke-linecap="round"><g transform="translate(359 385.2546860706061) rotate(0 -128.75 -2.5)"><path d="M0.26 -0.73 C-42.98 -1.45, -215.5 -4.6, -258.48 -5.43 M-1.06 1.5 C-44.03 1.04, -213.38 -3.08, -256.29 -4.12" stroke="#1e1e1e" stroke-width="2" fill="none"></path></g><g transform="translate(359 385.2546860706061) rotate(0 -128.75 -2.5)"><path d="M-232.59 -12.1 C-242.92 -10.64, -251.46 -6.22, -256.29 -4.12 M-232.59 -12.1 C-237.53 -9.44, -243.48 -7.2, -256.29 -4.12" stroke="#1e1e1e" stroke-width="2" fill="none"></path></g><g transform="translate(359 385.2546860706061) rotate(0 -128.75 -2.5)"><path d="M-233.01 5 C-243.02 -0.07, -251.4 -2.17, -256.29 -4.12 M-233.01 5 C-237.79 3.5, -243.65 1.57, -256.29 -4.12" stroke="#1e1e1e" stroke-width="2" fill="none"></path></g></g><mask></mask><g stroke-linecap="round"><g transform="translate(94 379.2546860706061) rotate(0 0.25 18.75)"><path d="M-0.23 0.37 C-0.13 6.69, -0.12 31.9, 0.07 38.03 M0.65 0.08 C0.96 6.26, 1.07 31.09, 1.09 37.33" stroke="#1e1e1e" stroke-width="2" fill="none"></path></g><g transform="translate(94 379.2546860706061) rotate(0 0.25 18.75)"><path d="M-5.41 19.74 C-3.41 22.69, -1.79 27.78, 1.09 37.33 M-5.41 19.74 C-4.12 23.83, -2.84 27.54, 1.09 37.33" stroke="#1e1e1e" stroke-width="2" fill="none"></path></g><g transform="translate(94 379.2546860706061) rotate(0 0.25 18.75)"><path d="M7.42 19.68 C6.74 22.62, 5.69 27.72, 1.09 37.33 M7.42 19.68 C5.78 23.82, 4.13 27.54, 1.09 37.33" stroke="#1e1e1e" stroke-width="2" fill="none"></path></g></g><mask></mask><g stroke-linecap="round"><g transform="translate(95 483.7546860706061) rotate(0 1.25 48)"><path d="M0.46 0.88 C0.91 17.07, 1.94 80.57, 2.14 96.24 M-0.76 0.29 C-0.45 16.19, 0.19 78.36, 1 94.24" stroke="#1e1e1e" stroke-width="2" fill="none"></path></g><g transform="translate(95 483.7546860706061) rotate(0 1.25 48)"><path d="M-8.2 71 C-4.58 76.28, -3.3 81.43, 1 94.24 M-8.2 71 C-7.34 76.09, -4.13 80.06, 1 94.24" stroke="#1e1e1e" stroke-width="2" fill="none"></path></g><g transform="translate(95 483.7546860706061) rotate(0 1.25 48)"><path d="M8.89 70.52 C8.16 75.98, 5.1 81.26, 1 94.24 M8.89 70.52 C6.2 75.82, 5.86 79.88, 1 94.24" stroke="#1e1e1e" stroke-width="2" fill="none"></path></g></g><mask></mask></svg>