<svg version="1.1" xmlns="http://www.w3.org/2000/svg" viewBox="0 0 451.0430425908416 364.65119874231516" width="902.0860851816832" height="729.3023974846303">
  <!-- svg-source:excalidraw -->
  
  <defs>
    <style class="style-fonts">
      @font-face {
        font-family: "Virgil";
        src: url("https://excalidraw.com/Virgil.woff2");
      }
      @font-face {
        font-family: "Cascadia";
        src: url("https://excalidraw.com/Cascadia.woff2");
      }
      @font-face {
        font-family: "Assistant";
        src: url("https://excalidraw.com/Assistant-Regular.woff2");
      }
    </style>
    
  </defs>
  <rect x="0" y="0" width="451.0430425908416" height="364.65119874231516" fill="#ffffff"></rect><g stroke-linecap="round"><g transform="translate(232.24610224254428 10.433609192371364) rotate(0 0.25 72.25)"><path d="M-0.68 0.4 C-0.49 24.45, 1.37 119.73, 1.64 143.62 M1.17 -0.43 C1.26 23.8, 1.41 120.51, 1.29 144.69" stroke="#1e1e1e" stroke-width="2" fill="none"></path></g><g transform="translate(232.24610224254428 10.433609192371364) rotate(0 0.25 72.25)"><path d="M-7.23 121.19 C-3.78 131.18, -3 138.07, 1.29 144.69 M-7.23 121.19 C-5.76 127.71, -4.08 132.3, 1.29 144.69" stroke="#1e1e1e" stroke-width="2" fill="none"></path></g><g transform="translate(232.24610224254428 10.433609192371364) rotate(0 0.25 72.25)"><path d="M9.87 121.21 C7.47 131.09, 2.4 137.98, 1.29 144.69 M9.87 121.21 C7.27 127.7, 4.88 132.28, 1.29 144.69" stroke="#1e1e1e" stroke-width="2" fill="none"></path></g></g><mask></mask><g stroke-linecap="round" transform="translate(141.74610224254428 153.93360919237136) rotate(0 91.5 73.75)"><path d="M115 18.5 C131.27 32.64, 148.51 43.99, 160 55.5 M115 18.5 C123.86 27.39, 134.87 34.29, 160 55.5 M160 55.5 C182.85 72.91, 183.51 72.95, 160 92.5 M160 55.5 C181.41 75.28, 184.32 73.21, 160 92.5 M160 92.5 C142.97 107.16, 128.51 120.52, 115 129 M160 92.5 C143.74 104.5, 127.97 119.34, 115 129 M115 129 C92 145.75, 90.74 147.41, 69 129 M115 129 C92.26 148.73, 93.59 145.52, 69 129 M69 129 C51.52 116.46, 35.17 102.43, 23 92.5 M69 129 C58.9 121.19, 49.32 114.12, 23 92.5 M23 92.5 C0.89 74.32, 0.8 73.53, 23 55.5 M23 92.5 C2.07 74.09, 0.3 72.49, 23 55.5 M23 55.5 C41.8 42.17, 57.45 27.45, 69 18.5 M23 55.5 C35.73 44.2, 48.85 35.23, 69 18.5 M69 18.5 C92.97 -0.97, 90.07 0.62, 115 18.5 M69 18.5 C93.74 1.2, 90.31 0.83, 115 18.5" stroke="#1e1e1e" stroke-width="2" fill="none"></path></g><g transform="translate(226.44611444957553 215.30860919237136) rotate(0 7.04998779296875 12.5)"><text x="7.04998779296875" y="17.52" font-family="Virgil, Segoe UI Emoji" font-size="20px" fill="#1e1e1e" text-anchor="middle" style="white-space: pre;" direction="ltr" dominant-baseline="alphabetic">if</text></g><g stroke-linecap="round"><g transform="translate(321.2461022425443 228.93360919237136) rotate(0 57.75 0.5)"><path d="M-0.06 -0.94 C19.49 -0.79, 96.96 0.9, 116.4 1.18 M-1.54 1.18 C18.01 1.53, 96.27 2.69, 115.92 2.82" stroke="#1e1e1e" stroke-width="2" fill="none"></path></g><g transform="translate(321.2461022425443 228.93360919237136) rotate(0 57.75 0.5)"><path d="M92.33 11.1 C96.04 10.74, 103.21 9.15, 115.92 2.82 M92.33 11.1 C97.96 8.09, 105.05 6.61, 115.92 2.82" stroke="#1e1e1e" stroke-width="2" fill="none"></path></g><g transform="translate(321.2461022425443 228.93360919237136) rotate(0 57.75 0.5)"><path d="M92.52 -6 C96.23 -2.52, 103.36 -0.27, 115.92 2.82 M92.52 -6 C98.13 -4.19, 105.16 -0.87, 115.92 2.82" stroke="#1e1e1e" stroke-width="2" fill="none"></path></g></g><mask></mask><g stroke-linecap="round"><g transform="translate(144.32063573899683 224.75001645077953) rotate(0 -66 1)"><path d="M0.23 -0.77 C-21.63 -0.57, -109.93 0.78, -132.13 1.38 M-1.11 1.44 C-23.05 1.78, -111.57 2.68, -133.14 2.58" stroke="#1e1e1e" stroke-width="2" fill="none"></path></g><g transform="translate(144.32063573899683 224.75001645077953) rotate(0 -66 1)"><path d="M-109.68 -6.06 C-116.06 -4.34, -120.93 -3.81, -133.14 2.58 M-109.68 -6.06 C-117.83 -2.98, -126.24 -0.47, -133.14 2.58" stroke="#1e1e1e" stroke-width="2" fill="none"></path></g><g transform="translate(144.32063573899683 224.75001645077953) rotate(0 -66 1)"><path d="M-109.61 11.04 C-116.03 9.03, -120.91 5.85, -133.14 2.58 M-109.61 11.04 C-117.69 7.87, -126.12 4.15, -133.14 2.58" stroke="#1e1e1e" stroke-width="2" fill="none"></path></g></g><mask></mask><g stroke-linecap="round"><g transform="translate(10.246102242544282 228.43360919237136) rotate(0 1.25 61.75)"><path d="M-0.25 0.4 C0.19 21.07, 1.93 103.08, 2.54 123.65 M1.83 -0.44 C2.11 20.49, 1.4 104.31, 1.61 125.27" stroke="#1e1e1e" stroke-width="2" fill="none"></path></g><g transform="translate(10.246102242544282 228.43360919237136) rotate(0 1.25 61.75)"><path d="M-6.93 101.77 C-3.84 108.76, -1.74 117.09, 1.61 125.27 M-6.93 101.77 C-5.05 108.68, -0.62 116.36, 1.61 125.27" stroke="#1e1e1e" stroke-width="2" fill="none"></path></g><g transform="translate(10.246102242544282 228.43360919237136) rotate(0 1.25 61.75)"><path d="M10.17 101.78 C8.24 108.73, 5.32 117.05, 1.61 125.27 M10.17 101.78 C6.46 108.6, 5.3 116.27, 1.61 125.27" stroke="#1e1e1e" stroke-width="2" fill="none"></path></g></g><mask></mask><g stroke-linecap="round"><g transform="translate(439.09859288111323 230.51926044464113) rotate(0 1.25 61.75)"><path d="M0.53 0.68 C1.02 21.32, 1.57 103.47, 1.94 124.13 M-0.64 -0.01 C-0.29 20.25, 0.23 101.85, 0.7 122.34" stroke="#1e1e1e" stroke-width="2" fill="none"></path></g><g transform="translate(439.09859288111323 230.51926044464113) rotate(0 1.25 61.75)"><path d="M-8.17 98.97 C-5.01 103.17, -3.13 109.76, 0.7 122.34 M-8.17 98.97 C-4.7 108.55, -1.55 118.39, 0.7 122.34" stroke="#1e1e1e" stroke-width="2" fill="none"></path></g><g transform="translate(439.09859288111323 230.51926044464113) rotate(0 1.25 61.75)"><path d="M8.93 98.73 C8.31 103.07, 6.41 109.71, 0.7 122.34 M8.93 98.73 C5.59 108.44, 1.95 118.37, 0.7 122.34" stroke="#1e1e1e" stroke-width="2" fill="none"></path></g></g><mask></mask></svg>