<svg version="1.1" xmlns="http://www.w3.org/2000/svg" viewBox="0 0 241.14145840294657 462.91943347750225" width="482.28291680589314" height="925.8388669550045">
  <!-- svg-source:excalidraw -->
  
  <defs>
    <style class="style-fonts">
      @font-face {
        font-family: "Virgil";
        src: url("https://excalidraw.com/Virgil.woff2");
      }
      @font-face {
        font-family: "Cascadia";
        src: url("https://excalidraw.com/Cascadia.woff2");
      }
      @font-face {
        font-family: "Assistant";
        src: url("https://excalidraw.com/Assistant-Regular.woff2");
      }
    </style>
    
  </defs>
  <rect x="0" y="0" width="241.14145840294657" height="462.91943347750225" fill="#ffffff"></rect><g stroke-linecap="round" transform="translate(17 84.89335052877664) rotate(0 54.25 48)"><path d="M68.75 12.25 C74.08 19.17, 84.29 27.6, 94.75 36.75 M68.75 12.25 C74.67 19.13, 81.84 24.16, 94.75 36.75 M94.75 36.75 C106.97 50.42, 107.07 50.42, 94.75 61.25 M94.75 36.75 C109.03 49.03, 108.88 49.18, 94.75 61.25 M94.75 61.25 C83.84 71.37, 76.04 80.02, 68.75 83.75 M94.75 61.25 C86.14 68.83, 78.49 76.2, 68.75 83.75 M68.75 83.75 C55.07 97.89, 53.01 97.65, 41.25 83.75 M68.75 83.75 C54.87 94.31, 55.56 98.02, 41.25 83.75 M41.25 83.75 C35.26 78.62, 27.62 74.41, 13.75 61.25 M41.25 83.75 C33.63 76.35, 24.88 71.65, 13.75 61.25 M13.75 61.25 C0.14 50.29, 0.11 49.73, 13.75 36.75 M13.75 61.25 C-1.61 47.06, -1.64 50.18, 13.75 36.75 M13.75 36.75 C25.95 26.41, 35.21 17.77, 41.25 12.25 M13.75 36.75 C22.76 29.58, 31.35 20.4, 41.25 12.25 M41.25 12.25 C54.34 0.3, 53.42 -1.93, 68.75 12.25 M41.25 12.25 C52.99 1.57, 56.76 0.37, 68.75 12.25" stroke="#1e1e1e" stroke-width="2" fill="none"></path></g><g transform="translate(52.485023498535156 120.39335052877664) rotate(0 18.639976501464844 12.5)"><text x="18.639976501464844" y="17.52" font-family="Virgil, Segoe UI Emoji" font-size="20px" fill="#1e1e1e" text-anchor="middle" style="white-space: pre;" direction="ltr" dominant-baseline="alphabetic">loop</text></g><g stroke-linecap="round"><g transform="translate(73.5 10.393350528776637) rotate(0 0 37.5)"><path d="M-0.3 0.43 C-0.23 12.62, 0.88 61.99, 1.05 74.23 M1.74 -0.39 C1.7 12.46, 0.89 62.86, 0.66 75.37" stroke="#1e1e1e" stroke-width="2" fill="none"></path></g><g transform="translate(73.5 10.393350528776637) rotate(0 0 37.5)"><path d="M-7.49 51.73 C-3.73 61.73, -2.89 69.37, 0.66 75.37 M-7.49 51.73 C-6.69 56.75, -4.39 61.1, 0.66 75.37" stroke="#1e1e1e" stroke-width="2" fill="none"></path></g><g transform="translate(73.5 10.393350528776637) rotate(0 0 37.5)"><path d="M9.61 52.02 C7.41 61.88, 2.3 69.42, 0.66 75.37 M9.61 52.02 C6.86 56.91, 5.62 61.21, 0.66 75.37" stroke="#1e1e1e" stroke-width="2" fill="none"></path></g></g><mask></mask><g stroke-linecap="round" transform="translate(10 248.39335052877664) rotate(0 62.25 27.75)"><path d="M13.88 0 C38.09 -1.85, 62.36 -0.17, 110.63 0 M13.88 0 C45.27 -0.18, 75.09 0.51, 110.63 0 M110.63 0 C118.13 -0.37, 126.18 6.13, 124.5 13.88 M110.63 0 C121.28 -0.15, 123.55 3.17, 124.5 13.88 M124.5 13.88 C122.51 23.14, 125.48 30.81, 124.5 41.63 M124.5 13.88 C124.61 21.95, 124.33 29.3, 124.5 41.63 M124.5 41.63 C123.04 52.6, 118.62 54.99, 110.63 55.5 M124.5 41.63 C122.44 51.35, 121.51 57.73, 110.63 55.5 M110.63 55.5 C72.26 53.69, 33.03 56.71, 13.88 55.5 M110.63 55.5 C87.48 56.09, 65.57 56.15, 13.88 55.5 M13.88 55.5 C3.57 53.86, -0.11 49.67, 0 41.63 M13.88 55.5 C5.06 53.7, -1.71 50.58, 0 41.63 M0 41.63 C1.93 31.38, -1.13 18.51, 0 13.88 M0 41.63 C-0.19 33.66, 0.27 26.01, 0 13.88 M0 13.88 C0.99 4.93, 2.87 -0.61, 13.88 0 M0 13.88 C0.34 5.02, 4.96 0.15, 13.88 0" stroke="#1e1e1e" stroke-width="2" fill="none"></path></g><g transform="translate(61.290008544921875 263.64335052877664) rotate(0 10.959991455078125 12.5)"><text x="10.959991455078125" y="17.52" font-family="Virgil, Segoe UI Emoji" font-size="20px" fill="#1e1e1e" text-anchor="middle" style="white-space: pre;" direction="ltr" dominant-baseline="alphabetic">....</text></g><g stroke-linecap="round"><g transform="translate(72 180.89335052877664) rotate(0 1.5 28.5)"><path d="M0.44 -0.72 C0.93 8.55, 2.75 46.71, 3.34 56.36 M-0.78 1.51 C-0.46 10.88, 1.82 48.04, 2.57 57.56" stroke="#1e1e1e" stroke-width="2" fill="none"></path></g><g transform="translate(72 180.89335052877664) rotate(0 1.5 28.5)"><path d="M-7.56 34.71 C-5.24 42.89, -1.71 51.6, 2.57 57.56 M-7.56 34.71 C-4.47 41.56, -1 49.21, 2.57 57.56" stroke="#1e1e1e" stroke-width="2" fill="none"></path></g><g transform="translate(72 180.89335052877664) rotate(0 1.5 28.5)"><path d="M9.5 33.54 C6.11 42.18, 3.94 51.28, 2.57 57.56 M9.5 33.54 C7.18 40.65, 5.25 48.66, 2.57 57.56" stroke="#1e1e1e" stroke-width="2" fill="none"></path></g></g><mask></mask><g stroke-linecap="round"><g transform="translate(72.5 305.89335052877664) rotate(0 0.5 32.75)"><path d="M0.86 -0.16 C1.05 10.81, 0.13 55.04, 0.24 66.13 M-0.15 -1.3 C0.51 9.3, 2.36 53.38, 2.56 64.33" stroke="#1e1e1e" stroke-width="2" fill="none"></path></g><g transform="translate(72.5 305.89335052877664) rotate(0 0.5 32.75)"><path d="M-6.74 41.13 C-4.89 44.98, -1.5 52.3, 2.56 64.33 M-6.74 41.13 C-3.45 49.41, 0.09 57.42, 2.56 64.33" stroke="#1e1e1e" stroke-width="2" fill="none"></path></g><g transform="translate(72.5 305.89335052877664) rotate(0 0.5 32.75)"><path d="M10.35 40.58 C8.39 44.67, 7.97 52.12, 2.56 64.33 M10.35 40.58 C7.34 49.03, 4.57 57.24, 2.56 64.33" stroke="#1e1e1e" stroke-width="2" fill="none"></path></g></g><mask></mask><g stroke-linecap="round"><g transform="translate(73.5 377.89335052877664) rotate(0 -0.5 37.5)"><path d="M-1.2 -1.04 C-1.43 11.23, -0.61 61.43, -0.49 74.01 M0.38 1.03 C-0.04 13.38, -0.94 62.62, -1.17 75.03" stroke="#1e1e1e" stroke-width="2" fill="none"></path></g><g transform="translate(73.5 377.89335052877664) rotate(0 -0.5 37.5)"><path d="M-9.28 51.38 C-7.91 61.14, -4.8 69.97, -1.17 75.03 M-9.28 51.38 C-7.84 58.09, -5.11 62.55, -1.17 75.03" stroke="#1e1e1e" stroke-width="2" fill="none"></path></g><g transform="translate(73.5 377.89335052877664) rotate(0 -0.5 37.5)"><path d="M7.81 51.7 C2.8 61.17, -0.47 69.88, -1.17 75.03 M7.81 51.7 C4.94 58.16, 3.34 62.54, -1.17 75.03" stroke="#1e1e1e" stroke-width="2" fill="none"></path></g></g><mask></mask><g stroke-linecap="round"><g transform="translate(77.5 374.39335052877664) rotate(0 75.75 -0.25)"><path d="M0.28 1.08 C25.36 0.74, 126.55 -0.82, 151.66 -0.95 M-1.03 0.6 C23.81 0.93, 125.65 0.72, 150.79 0.35" stroke="#1e1e1e" stroke-width="2" fill="none"></path></g><g transform="translate(77.5 374.39335052877664) rotate(0 75.75 -0.25)"><path d="M127.36 9.07 C138.42 5.8, 145.22 1.08, 150.79 0.35 M127.36 9.07 C135.21 6.64, 143.94 2.69, 150.79 0.35" stroke="#1e1e1e" stroke-width="2" fill="none"></path></g><g transform="translate(77.5 374.39335052877664) rotate(0 75.75 -0.25)"><path d="M127.24 -8.03 C138.51 -4.48, 145.35 -2.38, 150.79 0.35 M127.24 -8.03 C134.96 -4.19, 143.74 -1.88, 150.79 0.35" stroke="#1e1e1e" stroke-width="2" fill="none"></path></g></g><mask></mask><g stroke-linecap="round"><g transform="translate(230.5 373.39335052877664) rotate(0 -2.25 -117.5)"><path d="M0.64 -0.96 C-0.2 -40.06, -4.17 -195.19, -4.95 -234.24 M-0.48 1.15 C-1.53 -38.31, -5.46 -196.76, -6.14 -235.96" stroke="#1e1e1e" stroke-width="2" fill="none"></path></g><g transform="translate(230.5 373.39335052877664) rotate(0 -2.25 -117.5)"><path d="M2.92 -212.66 C-1.54 -220.55, -1.46 -226.22, -6.14 -235.96 M2.92 -212.66 C-0.32 -218.4, -1.5 -225.55, -6.14 -235.96" stroke="#1e1e1e" stroke-width="2" fill="none"></path></g><g transform="translate(230.5 373.39335052877664) rotate(0 -2.25 -117.5)"><path d="M-14.18 -212.29 C-13.37 -220.38, -8.02 -226.16, -6.14 -235.96 M-14.18 -212.29 C-12.62 -217.99, -9.01 -225.24, -6.14 -235.96" stroke="#1e1e1e" stroke-width="2" fill="none"></path></g></g><mask></mask><g stroke-linecap="round"><g transform="translate(225.5 132.39335052877664) rotate(0 -47 0)"><path d="M-0.56 1.14 C-16.16 1.24, -79.06 0.01, -94.75 -0.3 M1.34 0.69 C-13.76 1.05, -76.24 1.17, -92.43 1.08" stroke="#1e1e1e" stroke-width="2" fill="none"></path></g><g transform="translate(225.5 132.39335052877664) rotate(0 -47 0)"><path d="M-68.93 -7.45 C-71.81 -7.09, -78.92 -5.27, -92.43 1.08 M-68.93 -7.45 C-74.74 -6.01, -80.87 -3.95, -92.43 1.08" stroke="#1e1e1e" stroke-width="2" fill="none"></path></g><g transform="translate(225.5 132.39335052877664) rotate(0 -47 0)"><path d="M-68.94 9.65 C-71.69 6.58, -78.81 4.96, -92.43 1.08 M-68.94 9.65 C-74.58 7, -80.7 4.97, -92.43 1.08" stroke="#1e1e1e" stroke-width="2" fill="none"></path></g></g><mask></mask></svg>